<svg xmlns="http://www.w3.org/2000/svg" viewBox="0 0 320 80" width="320" height="80" role="img" aria-label="Sa Systems">
  <defs>
    <linearGradient id="saGrad" x1="0" y1="0" x2="1" y2="1">
      <stop offset="0" stop-color="#16a34a"/>
      <stop offset="1" stop-color="#0ea5e9"/>
    </linearGradient>
  </defs>
  <!-- Mark -->
  <g>
    <rect x="4" y="8" width="64" height="64" rx="16" fill="url(#saGrad)"/>
    <!-- recycling-style arrows forming an S -->
    <path d="M24 30c4-7 16-8 21-2l-3 3 11 1-2-11-3 3c-9-9-26-6-31 6z" fill="#ffffff" opacity="0.95"/>
    <path d="M48 50c-4 7-16 8-21 2l3-3-11-1 2 11 3-3c9 9 26 6 31-6z" fill="#ffffff" opacity="0.85"/>
  </g>
  <!-- Wordmark -->
  <g font-family="'Segoe UI', Roboto, Helvetica, Arial, sans-serif">
    <text x="82" y="44" font-size="30" font-weight="700" fill="#0f172a">Sa</text>
    <text x="125" y="44" font-size="30" font-weight="300" fill="#16a34a">Systems</text>
    <text x="83" y="63" font-size="11" letter-spacing="3" fill="#64748b">ENVIRONMENTAL OPERATIONS</text>
  </g>
</svg>
